<svg xmlns="http://www.w3.org/2000/svg" width="30.017" height="30.017" viewBox="0 0 30.017 30.017"><defs><style>.a{fill:#fff;}</style></defs><path class="a" d="M21.733,0H8.283A8.293,8.293,0,0,0,0,8.284v13.45a8.293,8.293,0,0,0,8.283,8.284h13.45a8.293,8.293,0,0,0,8.284-8.284V8.284A8.293,8.293,0,0,0,21.733,0Zm5.621,21.734a5.627,5.627,0,0,1-5.621,5.62H8.283a5.627,5.627,0,0,1-5.62-5.62V8.284a5.627,5.627,0,0,1,5.62-5.62h13.45a5.627,5.627,0,0,1,5.621,5.62v13.45Z"/><path class="a" d="M48.7,40.97A7.734,7.734,0,1,0,56.437,48.7,7.743,7.743,0,0,0,48.7,40.97Zm0,12.806A5.071,5.071,0,1,1,53.774,48.7,5.077,5.077,0,0,1,48.7,53.776Z" transform="translate(-33.694 -33.696)"/><path class="a" d="M120.874,28.251a1.952,1.952,0,1,0,1.381.572A1.961,1.961,0,0,0,120.874,28.251Z" transform="translate(-97.806 -23.235)"/></svg>