<svg xmlns="http://www.w3.org/2000/svg" width="41.279" height="31.443" viewBox="0 0 41.279 31.443"><defs><style>.a{fill:#fff;}</style></defs><g transform="translate(0)"><g transform="translate(0 0)"><path class="a" d="M37.651,61H3.628A3.634,3.634,0,0,0,0,64.628V88.815a3.634,3.634,0,0,0,3.628,3.628H37.651a3.634,3.634,0,0,0,3.628-3.628V64.628A3.634,3.634,0,0,0,37.651,61Zm-.5,2.419L20.717,79.853,4.141,63.419ZM2.419,88.314v-23.2L14.067,76.666Zm1.71,1.71L15.785,78.369l4.084,4.049a1.209,1.209,0,0,0,1.707,0l3.982-3.982L37.15,90.025Zm34.732-1.71L27.268,76.722,38.861,65.129Z" transform="translate(0 -61)"/></g></g></svg>