<svg xmlns="http://www.w3.org/2000/svg" xmlns:xlink="http://www.w3.org/1999/xlink" width="119.223" height="46.047" viewBox="0 0 119.223 46.047"><defs><style>.a{fill:#040506;}.b{fill:url(#a);}.c{fill:url(#b);}.d{fill:url(#c);}.e{fill:url(#d);}.f{fill:url(#e);}.g{fill:#10336a;}</style><linearGradient id="a" x1="-1.656" y1="0.5" x2="5.376" y2="0.5" gradientUnits="objectBoundingBox"><stop offset="0" stop-color="#50a13a"/><stop offset="1" stop-color="#10336a"/></linearGradient><linearGradient id="b" x1="-2.103" y1="0.5" x2="2.943" y2="0.5" xlink:href="#a"/><linearGradient id="c" x1="-3.982" y1="0.5" x2="2.161" y2="0.5" xlink:href="#a"/><linearGradient id="d" x1="0" y1="0.5" x2="4.237" y2="0.5" xlink:href="#a"/><linearGradient id="e" x1="-5.196" y1="0.5" x2="0.999" y2="0.5" xlink:href="#a"/></defs><g transform="translate(-91.489 -197.559)"><g transform="translate(131.859 234.029)"><path class="a" d="M480.845,579.538a2.685,2.685,0,0,1-1.982-.678,2.62,2.62,0,0,1-.678-1.937v-1.606a2.367,2.367,0,0,1,2.659-2.633,2.738,2.738,0,0,1,1.946.639,2.36,2.36,0,0,1,.681,1.808v.109h-.578v-.122q0-1.882-2.049-1.882a2.093,2.093,0,0,0-1.58.527,2.276,2.276,0,0,0-.5,1.619v1.464a2.263,2.263,0,0,0,.5,1.615,2.1,2.1,0,0,0,1.58.524q2.049,0,2.049-1.876v-.122h.578v.109a2.349,2.349,0,0,1-.681,1.8A2.747,2.747,0,0,1,480.845,579.538Z" transform="translate(-478.186 -569.994)"/><path class="a" d="M547.387,578.769a3.294,3.294,0,0,1-4.04,0,2.676,2.676,0,0,1-.678-1.953v-1.606a2.669,2.669,0,0,1,.678-1.962,3.324,3.324,0,0,1,4.04,0,2.67,2.67,0,0,1,.678,1.962v1.606A2.675,2.675,0,0,1,547.387,578.769Zm-3.632-.4a2.7,2.7,0,0,0,3.224,0,2.3,2.3,0,0,0,.507-1.638v-1.464a2.282,2.282,0,0,0-.507-1.625,2.7,2.7,0,0,0-3.224,0,2.281,2.281,0,0,0-.507,1.625v1.464A2.3,2.3,0,0,0,543.755,578.374Z" transform="translate(-535.937 -569.882)"/><path class="a" d="M617.338,572.561q2.209,0,2.216,2.871v3.88h-.584V575.5q0-2.383-1.7-2.383a1.744,1.744,0,0,0-1.294.495,2.3,2.3,0,0,0-.588,1.439q.013.116.013.36v3.905h-.578V575.5q0-2.383-1.7-2.383a1.765,1.765,0,0,0-1.281.475,2.264,2.264,0,0,0-.613,1.368v4.355h-.578v-6.6h.437l.09.97a2.044,2.044,0,0,1,2-1.118,1.932,1.932,0,0,1,2.03,1.426,2.058,2.058,0,0,1,.8-1.063A2.353,2.353,0,0,1,617.338,572.561Z" transform="translate(-596.828 -569.882)"/><path class="a" d="M738.2,573.977h.578l-2.4,6.6h-.765l-2.389-6.6h.591l2.2,6.025Z" transform="translate(-706.599 -571.151)"/><path class="a" d="M798.364,578.769a3.294,3.294,0,0,1-4.04,0,2.676,2.676,0,0,1-.678-1.953v-1.606a2.67,2.67,0,0,1,.678-1.962,3.324,3.324,0,0,1,4.04,0,2.67,2.67,0,0,1,.678,1.962v1.606A2.675,2.675,0,0,1,798.364,578.769Zm-3.632-.4a2.7,2.7,0,0,0,3.224,0,2.3,2.3,0,0,0,.507-1.638v-1.464a2.282,2.282,0,0,0-.507-1.625,2.7,2.7,0,0,0-3.224,0,2.282,2.282,0,0,0-.507,1.625v1.464A2.3,2.3,0,0,0,794.731,578.374Z" transform="translate(-760.713 -569.882)"/><path class="a" d="M861.773,579.538a2.685,2.685,0,0,1-1.981-.678,2.62,2.62,0,0,1-.678-1.937v-1.606a2.367,2.367,0,0,1,2.659-2.633,2.737,2.737,0,0,1,1.946.639,2.359,2.359,0,0,1,.681,1.808v.109h-.578v-.122q0-1.882-2.049-1.882a2.093,2.093,0,0,0-1.58.527,2.276,2.276,0,0,0-.5,1.619v1.464a2.263,2.263,0,0,0,.5,1.615,2.1,2.1,0,0,0,1.58.524q2.049,0,2.049-1.876v-.122h.578v.109a2.349,2.349,0,0,1-.681,1.8A2.746,2.746,0,0,1,861.773,579.538Z" transform="translate(-819.347 -569.994)"/><path class="a" d="M926.256,549.582a2.761,2.761,0,0,1,1.953.639A2.314,2.314,0,0,1,928.9,552v1.2h-4.721v.417q0,2.345,2.094,2.345,2.023,0,2.023-1.779v-.077h.578a2.27,2.27,0,0,1-.662,1.77,2.8,2.8,0,0,1-1.94.6,2.54,2.54,0,0,1-1.988-.758,2.944,2.944,0,0,1-.684-2.049v-1.31a2.917,2.917,0,0,1,.678-2.03A2.531,2.531,0,0,1,926.256,549.582Zm-2.081,3.109h4.13v-.661q0-1.934-2.036-1.934-2.094,0-2.094,2.332Zm2.081-5.383-1.079,1.555h-.617l1.419-1.959h.552l1.432,1.959h-.629Z" transform="translate(-877.098 -546.904)"/><path class="a" d="M988.264,628.3v-1.041h.694V628.3Z" transform="translate(-935.014 -618.87)"/></g><path class="b" d="M322.061,263.673l-.516-.138a9.586,9.586,0,0,0-11.645,9.159c0,.028-.008.054-.008.082v12.045a2.157,2.157,0,0,0,2.151,2.151h1.98a2.157,2.157,0,0,0,2.151-2.151V272.776s0,0,0-.006a3.316,3.316,0,0,1,3.312-3.183,3.062,3.062,0,0,1,.533.046s.32.067.515.125a2.152,2.152,0,0,0,2.535-1.537l.513-1.913a2.157,2.157,0,0,0-1.521-2.634" transform="translate(-195.603 -58.888)"/><path class="c" d="M497.135,277.239V265.194a2.157,2.157,0,0,0-2.151-2.151H493a2.157,2.157,0,0,0-2.151,2.151v12.045c0,.025.006.048.007.073a3.317,3.317,0,0,1-6.631-.108v-12.01a2.157,2.157,0,0,0-2.151-2.151H480.1a2.157,2.157,0,0,0-2.151,2.151v12.045c0,.033.009.065.01.1a9.592,9.592,0,0,0,19.182-.1Z" transform="translate(-346.113 -58.648)"/><path class="d" d="M699.446,269.789c0-.816.43-1.547,2.062-1.547a22.91,22.91,0,0,1,3.552.466c1.057.151,1.925-.954,2.1-1.595l.221-.868a2.167,2.167,0,0,0-1.268-2.553,18.208,18.208,0,0,0-4.6-.649c-5.07,0-8.293,2.836-8.293,6.746,0,7.777,9.152,6.617,9.152,9.925,0,.988-1.16,1.718-2.707,1.718a23.142,23.142,0,0,1-4.154-.576,2.168,2.168,0,0,0-2.554,1.548l-.221.868a2.173,2.173,0,0,0,1.532,2.654,24.519,24.519,0,0,0,5.4.824c5.973,0,8.894-3.556,8.894-7.122,0-7.949-9.109-6.618-9.109-9.839" transform="translate(-538.409 -58.648)"/><path class="e" d="M112.138,197.56H93.64a2.157,2.157,0,0,0-2.151,2.151v1.98a2.157,2.157,0,0,0,2.151,2.151h6.108v22.111A2.157,2.157,0,0,0,101.9,228.1h1.98a2.157,2.157,0,0,0,2.151-2.151V203.842h6.108a2.157,2.157,0,0,0,2.151-2.151v-1.98a2.157,2.157,0,0,0-2.151-2.151" transform="translate(0 -0.001)"/><path class="f" d="M872.855,204.4h2.43V199.71a2.158,2.158,0,0,1,2.151-2.151h1.98a2.157,2.157,0,0,1,2.151,2.151V204.4h2.519a2.157,2.157,0,0,1,2.151,2.151v1.98a2.158,2.158,0,0,1-2.151,2.151h-2.519v15.274a2.157,2.157,0,0,1-2.151,2.151h-1.98a2.157,2.157,0,0,1-2.151-2.151V210.678h-1.954c-.064,0-.124-.014-.186-.019a2.142,2.142,0,0,1-1.944-1.573l-.513-1.913a2.058,2.058,0,0,1,2.167-2.778" transform="translate(-697.766 0)"/><path class="g" d="M1073.805,205.376l-8.072-4.668a2.211,2.211,0,0,0-2.2,3.833l5.511,3.2-7.951,4.563V199.771a2.211,2.211,0,1,0-4.422.025v15.313a2.8,2.8,0,0,0,1.506,2.508,2.757,2.757,0,0,0,2.678-.082l12.946-7.43a2.712,2.712,0,0,0,1.131-1.324A2.769,2.769,0,0,0,1073.805,205.376Z" transform="translate(-864.42 -0.001)"/></g></svg>