<svg xmlns="http://www.w3.org/2000/svg" width="106.469" height="41.122" viewBox="0 0 106.469 41.122"><defs><style>.a{fill:#fff;}</style></defs><g transform="translate(-84.18 -196.605)"><g transform="translate(120.231 229.174)"><path class="a" d="M476.232,580.74a2.4,2.4,0,0,1-1.769-.605,2.34,2.34,0,0,1-.605-1.729v-1.434a2.114,2.114,0,0,1,2.375-2.352,2.444,2.444,0,0,1,1.738.571,2.107,2.107,0,0,1,.608,1.615v.1h-.516v-.109q0-1.681-1.83-1.681a1.87,1.87,0,0,0-1.411.47,2.033,2.033,0,0,0-.447,1.446v1.308a2.022,2.022,0,0,0,.447,1.443,1.876,1.876,0,0,0,1.411.467q1.83,0,1.83-1.675v-.109h.516v.1a2.1,2.1,0,0,1-.608,1.612A2.453,2.453,0,0,1,476.232,580.74Z" transform="translate(-473.857 -572.216)"/><path class="a" d="M543.05,580.04a2.942,2.942,0,0,1-3.608,0,2.389,2.389,0,0,1-.605-1.744v-1.434a2.384,2.384,0,0,1,.605-1.752,2.969,2.969,0,0,1,3.608,0,2.385,2.385,0,0,1,.605,1.752v1.434A2.389,2.389,0,0,1,543.05,580.04Zm-3.244-.353a2.416,2.416,0,0,0,2.879,0,2.056,2.056,0,0,0,.453-1.463v-1.308a2.038,2.038,0,0,0-.453-1.451,2.415,2.415,0,0,0-2.879,0,2.038,2.038,0,0,0-.453,1.451v1.308A2.056,2.056,0,0,0,539.806,579.687Z" transform="translate(-532.825 -572.104)"/><path class="a" d="M613.314,574.5q1.973,0,1.979,2.564v3.464h-.522v-3.407q0-2.128-1.514-2.128a1.558,1.558,0,0,0-1.156.441,2.06,2.06,0,0,0-.525,1.285q.011.1.011.321v3.488h-.516v-3.407q0-2.128-1.514-2.128a1.577,1.577,0,0,0-1.144.424,2.023,2.023,0,0,0-.548,1.222v3.889h-.516v-5.9h.39l.08.866a1.826,1.826,0,0,1,1.784-1,1.726,1.726,0,0,1,1.813,1.273,1.841,1.841,0,0,1,.714-.949A2.1,2.1,0,0,1,613.314,574.5Z" transform="translate(-594.999 -572.104)"/><path class="a" d="M735.3,575.923h.516l-2.139,5.9h-.683l-2.134-5.9h.528l1.962,5.38Z" transform="translate(-707.082 -573.399)"/><path class="a" d="M795.96,580.04a2.942,2.942,0,0,1-3.608,0,2.389,2.389,0,0,1-.605-1.744v-1.434a2.384,2.384,0,0,1,.605-1.752,2.969,2.969,0,0,1,3.608,0,2.384,2.384,0,0,1,.605,1.752v1.434A2.389,2.389,0,0,1,795.96,580.04Zm-3.244-.353a2.416,2.416,0,0,0,2.88,0,2.057,2.057,0,0,0,.453-1.463v-1.308a2.038,2.038,0,0,0-.453-1.451,2.415,2.415,0,0,0-2.88,0,2.038,2.038,0,0,0-.453,1.451v1.308A2.056,2.056,0,0,0,792.716,579.687Z" transform="translate(-762.337 -572.104)"/><path class="a" d="M860.093,580.74a2.4,2.4,0,0,1-1.77-.605,2.34,2.34,0,0,1-.605-1.729v-1.434a2.114,2.114,0,0,1,2.375-2.352,2.444,2.444,0,0,1,1.738.571,2.107,2.107,0,0,1,.608,1.615v.1h-.516v-.109q0-1.681-1.83-1.681a1.87,1.87,0,0,0-1.411.47,2.033,2.033,0,0,0-.447,1.446v1.308a2.022,2.022,0,0,0,.447,1.443,1.877,1.877,0,0,0,1.411.467q1.83,0,1.83-1.675v-.109h.516v.1a2.1,2.1,0,0,1-.608,1.612A2.453,2.453,0,0,1,860.093,580.74Z" transform="translate(-822.205 -572.216)"/><path class="a" d="M925.073,551.032a2.466,2.466,0,0,1,1.744.571,2.067,2.067,0,0,1,.614,1.592v1.073h-4.216v.373q0,2.093,1.87,2.094,1.807,0,1.807-1.589v-.069h.516a2.027,2.027,0,0,1-.591,1.58,2.5,2.5,0,0,1-1.732.536,2.268,2.268,0,0,1-1.775-.677,2.629,2.629,0,0,1-.611-1.83v-1.17a2.6,2.6,0,0,1,.605-1.813A2.26,2.26,0,0,1,925.073,551.032Zm-1.858,2.776H926.9v-.591q0-1.726-1.818-1.727-1.87,0-1.87,2.082ZM925.073,549l-.964,1.388h-.551l1.268-1.75h.493l1.279,1.75h-.562Z" transform="translate(-881.173 -548.64)"/><path class="a" d="M987.863,630.543v-.929h.619v.929Z" transform="translate(-940.309 -622.123)"/></g><path class="a" d="M315.133,263.187l-.461-.123a8.561,8.561,0,0,0-10.4,8.179c0,.025-.008.048-.008.073v10.757a1.927,1.927,0,0,0,1.921,1.921h1.768a1.927,1.927,0,0,0,1.921-1.921V271.315s0,0,0-.006a2.962,2.962,0,0,1,2.958-2.843,2.727,2.727,0,0,1,.476.041s.285.06.46.112a1.922,1.922,0,0,0,2.264-1.373l.458-1.708a1.927,1.927,0,0,0-1.358-2.353" transform="translate(-199.724 -60.128)"/><path class="a" d="M490.751,275.271V264.514a1.927,1.927,0,0,0-1.921-1.921h-1.768a1.927,1.927,0,0,0-1.921,1.921v10.757c0,.022.006.043.007.065a2.962,2.962,0,0,1-5.922-.1V264.514a1.926,1.926,0,0,0-1.921-1.921h-1.768a1.927,1.927,0,0,0-1.921,1.921v10.757c0,.03.008.058.009.087a8.566,8.566,0,0,0,17.13-.087Z" transform="translate(-353.406 -59.883)"/><path class="a" d="M696.042,268.617c0-.729.384-1.382,1.842-1.382a20.465,20.465,0,0,1,3.172.416c.944.135,1.719-.852,1.872-1.424l.2-.775a1.936,1.936,0,0,0-1.132-2.28,16.262,16.262,0,0,0-4.11-.579c-4.528,0-7.406,2.533-7.406,6.024,0,6.945,8.173,5.909,8.173,8.864,0,.882-1.036,1.535-2.417,1.535a20.649,20.649,0,0,1-3.71-.514,1.937,1.937,0,0,0-2.281,1.383l-.2.775a1.941,1.941,0,0,0,1.369,2.37,21.894,21.894,0,0,0,4.82.736c5.334,0,7.943-3.176,7.943-6.36,0-7.1-8.134-5.91-8.134-8.787" transform="translate(-549.754 -59.883)"/><path class="a" d="M102.621,196.605H86.1a1.927,1.927,0,0,0-1.921,1.921v1.768a1.927,1.927,0,0,0,1.921,1.921h5.455v19.746a1.927,1.927,0,0,0,1.921,1.921h1.768a1.927,1.927,0,0,0,1.921-1.921V202.215h5.455a1.926,1.926,0,0,0,1.921-1.921v-1.768a1.926,1.926,0,0,0-1.921-1.921" transform="translate(0 0)"/><path class="a" d="M871.305,202.71h2.17v-4.184a1.927,1.927,0,0,1,1.921-1.921h1.768a1.927,1.927,0,0,1,1.921,1.921v4.184h2.249a1.927,1.927,0,0,1,1.921,1.921V206.4a1.927,1.927,0,0,1-1.921,1.921h-2.249v13.641a1.926,1.926,0,0,1-1.921,1.921H875.4a1.927,1.927,0,0,1-1.921-1.921V208.32h-1.745c-.057,0-.11-.012-.166-.017a1.913,1.913,0,0,1-1.737-1.4l-.458-1.708a1.838,1.838,0,0,1,1.935-2.481" transform="translate(-712.468 0)"/><path class="a" d="M1072.1,203.585l-7.208-4.169a1.974,1.974,0,0,0-1.967,3.423l4.922,2.855-7.1,4.075V198.579a1.974,1.974,0,1,0-3.949.022v13.675a2.5,2.5,0,0,0,1.345,2.24,2.463,2.463,0,0,0,2.391-.073l11.561-6.636a2.422,2.422,0,0,0,1.01-1.182A2.473,2.473,0,0,0,1072.1,203.585Z" transform="translate(-882.633 0)"/></g></svg>